<mxfile host="app.diagrams.net" modified="2023-02-21T16:12:26.502Z" agent="5.0 (Macintosh; Intel Mac OS X 10_15_7) AppleWebKit/537.36 (KHTML, like Gecko) Chrome/110.0.0.0 Safari/537.36" etag="Fjnx7uvt3nIqEGfdeOaC" version="20.8.21" type="github">
  <diagram name="Page-1" id="0LJYgj0GVG0AFTWamXtE">
    <mxGraphModel dx="954" dy="648" grid="1" gridSize="10" guides="1" tooltips="1" connect="1" arrows="1" fold="1" page="1" pageScale="1" pageWidth="850" pageHeight="1100" math="0" shadow="0">
      <root>
        <mxCell id="0" />
        <mxCell id="1" parent="0" />
        <mxCell id="WBu1AoBzWjfOrgbPnqZg-1" value="End" style="ellipse;whiteSpace=wrap;html=1;aspect=fixed;fillColor=#f8cecc;strokeColor=#b85450;fontStyle=1;strokeWidth=2;" vertex="1" parent="1">
          <mxGeometry x="115" y="540" width="70" height="70" as="geometry" />
        </mxCell>
        <mxCell id="WBu1AoBzWjfOrgbPnqZg-2" style="edgeStyle=orthogonalEdgeStyle;rounded=0;orthogonalLoop=1;jettySize=auto;html=1;entryX=0.5;entryY=0;entryDx=0;entryDy=0;fontColor=#FFFFFF;" edge="1" parent="1" source="WBu1AoBzWjfOrgbPnqZg-3" target="WBu1AoBzWjfOrgbPnqZg-5">
          <mxGeometry relative="1" as="geometry" />
        </mxCell>
        <mxCell id="WBu1AoBzWjfOrgbPnqZg-3" value="Start" style="ellipse;whiteSpace=wrap;html=1;aspect=fixed;fillColor=#d5e8d4;strokeColor=#82b366;fontStyle=1;strokeWidth=2;" vertex="1" parent="1">
          <mxGeometry x="115" y="20" width="70" height="70" as="geometry" />
        </mxCell>
        <mxCell id="WBu1AoBzWjfOrgbPnqZg-4" value="" style="edgeStyle=orthogonalEdgeStyle;rounded=0;orthogonalLoop=1;jettySize=auto;html=1;" edge="1" parent="1" source="WBu1AoBzWjfOrgbPnqZg-5">
          <mxGeometry relative="1" as="geometry">
            <mxPoint x="150" y="230" as="targetPoint" />
          </mxGeometry>
        </mxCell>
        <mxCell id="WBu1AoBzWjfOrgbPnqZg-5" value="Staff membuka tab&lt;br&gt;jadwal mengajar" style="rounded=1;whiteSpace=wrap;html=1;fontSize=12;glass=0;strokeWidth=1;shadow=0;" vertex="1" parent="1">
          <mxGeometry x="50" y="130" width="200" height="70" as="geometry" />
        </mxCell>
        <mxCell id="WBu1AoBzWjfOrgbPnqZg-27" value="" style="edgeStyle=orthogonalEdgeStyle;rounded=0;orthogonalLoop=1;jettySize=auto;html=1;" edge="1" parent="1" source="WBu1AoBzWjfOrgbPnqZg-7" target="WBu1AoBzWjfOrgbPnqZg-1">
          <mxGeometry relative="1" as="geometry" />
        </mxCell>
        <mxCell id="WBu1AoBzWjfOrgbPnqZg-7" value="tampilan detail jadwal&lt;br&gt;yang dibuka &amp;amp;&lt;br&gt;informasi lainnya" style="shape=parallelogram;perimeter=parallelogramPerimeter;whiteSpace=wrap;html=1;fixedSize=1;strokeWidth=1;fillColor=#fff2cc;strokeColor=#d6b656;" vertex="1" parent="1">
          <mxGeometry x="57.5" y="420" width="185" height="70" as="geometry" />
        </mxCell>
        <mxCell id="WBu1AoBzWjfOrgbPnqZg-8" value="" style="edgeStyle=orthogonalEdgeStyle;rounded=0;orthogonalLoop=1;jettySize=auto;html=1;" edge="1" parent="1" source="WBu1AoBzWjfOrgbPnqZg-9" target="WBu1AoBzWjfOrgbPnqZg-7">
          <mxGeometry relative="1" as="geometry" />
        </mxCell>
        <mxCell id="WBu1AoBzWjfOrgbPnqZg-9" value="Staff membuka waktu tertentu pada jadwal" style="rounded=1;whiteSpace=wrap;html=1;fontSize=12;glass=0;strokeWidth=1;shadow=0;" vertex="1" parent="1">
          <mxGeometry x="77.5" y="310" width="145" height="70" as="geometry" />
        </mxCell>
        <mxCell id="WBu1AoBzWjfOrgbPnqZg-10" value="" style="edgeStyle=orthogonalEdgeStyle;rounded=0;orthogonalLoop=1;jettySize=auto;html=1;" edge="1" parent="1" source="WBu1AoBzWjfOrgbPnqZg-11" target="WBu1AoBzWjfOrgbPnqZg-9">
          <mxGeometry relative="1" as="geometry" />
        </mxCell>
        <mxCell id="WBu1AoBzWjfOrgbPnqZg-11" value="jadwal latihan" style="shape=parallelogram;perimeter=parallelogramPerimeter;whiteSpace=wrap;html=1;fixedSize=1;strokeWidth=1;fillColor=#fff2cc;strokeColor=#d6b656;" vertex="1" parent="1">
          <mxGeometry x="70" y="230" width="160" height="50" as="geometry" />
        </mxCell>
      </root>
    </mxGraphModel>
  </diagram>
</mxfile>
